<svg width="40" height="42" viewBox="0 0 40 42" fill="none" xmlns="http://www.w3.org/2000/svg">
<path d="M2.29497 5.64453C1.45505 6.86364 0.816734 8.23249 0.429688 9.70374H6.35439L2.29497 5.64453Z" fill="#29337A"/>
<path d="M9.37798 0.521118C7.87731 0.958154 6.48751 1.65553 5.26367 2.56513L9.37798 6.67944V0.521118Z" fill="#29337A"/>
<path d="M5.56836 23.7012C6.7163 24.5045 7.99881 25.1264 9.37668 25.5276V19.8935L5.56836 23.7012Z" fill="#29337A"/>
<path d="M0.578125 16.8704C1.00878 18.2654 1.66871 19.5596 2.51209 20.7108L6.35248 16.8704H0.578125Z" fill="#29337A"/>
<path d="M2.5086 5.3421C2.43579 5.44164 2.36402 5.54261 2.29368 5.64462L6.35311 9.70383H0.428401C0.332382 10.0693 0.254016 10.4417 0.189453 10.8193H7.98626L2.5086 5.3421Z" fill="white"/>
<path d="M5.26758 23.4864C5.36668 23.5602 5.46853 23.6305 5.56966 23.7013L9.37798 19.8934V25.5275C9.74386 25.6345 10.1154 25.7268 10.4935 25.801V18.2606L5.26758 23.4864Z" fill="white"/>
<path d="M0.285156 15.7549C0.365997 16.1329 0.461412 16.5051 0.574314 16.8704H6.34872L2.50834 20.7108C2.92601 21.2814 3.38917 21.817 3.89242 22.3122L10.4497 15.7549H0.285156Z" fill="white"/>
<path d="M9.37685 0.521159V6.67948L5.26249 2.56539C4.69528 2.98719 4.16509 3.45547 3.67383 3.9624L10.4921 10.7807V0.24762C10.1143 0.322301 9.74273 0.414856 9.37685 0.521159Z" fill="white"/>
<path d="M9.3809 16.8314L9.3418 16.8707H9.3809V16.8314Z" fill="#D32030"/>
<path d="M10.4551 15.7551H10.4941V15.7159L10.4551 15.7551Z" fill="#D32030"/>
<path d="M15.4693 10.8195H15.4316V10.8573L15.4693 10.8195Z" fill="#D32030"/>
<path d="M9.42125 9.70419L9.38281 9.66553V9.70419H9.42125Z" fill="#D32030"/>
<path d="M10.4961 10.781V10.8195H10.5346L10.4961 10.781Z" fill="#D32030"/>
<path d="M16.5449 22.6443V25.564C17.9407 25.1733 19.2421 24.5574 20.4061 23.7549L17.2425 20.5913C16.9897 21.4795 16.8972 21.9387 16.5449 22.6443Z" fill="#252F6C"/>
<path d="M17.2592 5.96529L20.7127 2.51173C19.472 1.60312 18.0645 0.910693 16.5449 0.484985V3.48424C16.9511 4.2976 16.9853 4.91562 17.2592 5.96529Z" fill="#252F6C"/>
<path d="M23.4827 20.7868C24.3524 19.6168 25.0303 18.2961 25.4705 16.8705H19.5664L23.4827 20.7868Z" fill="#252F6C"/>
<path d="M25.6211 9.70407C25.2258 8.20174 24.5684 6.80721 23.7019 5.56897L19.5664 9.70407H25.6211Z" fill="#252F6C"/>
<path d="M18.0156 15.9757L18.9106 16.8707L23.1948 21.1549C23.2921 21.0332 23.3887 20.9119 23.4817 20.787L19.5655 16.8707H25.4696C25.5821 16.5057 25.6777 16.1333 25.7583 15.7552H18.0993C18.0868 15.9134 18.0306 15.8186 18.0156 15.9757Z" fill="#E7E7E7"/>
<path d="M17.1189 6.61847L21.0019 2.73508C20.9046 2.65963 20.8071 2.58456 20.7078 2.51175L17.2542 5.96531C17.29 6.10186 17.0856 6.47862 17.1189 6.61847Z" fill="#E7E7E7"/>
<path d="M16.5413 3.24426V0.484779C16.1758 0.38238 15.8038 0.2956 15.4258 0.224823V1.57085C15.8408 2.02081 16.2129 2.58598 16.5413 3.24426Z" fill="#E7E7E7"/>
<path d="M17.9278 10.8194H25.8576C25.7932 10.4418 25.7147 10.0695 25.6187 9.70389H19.564L23.6995 5.5688C23.2929 4.98801 22.8411 4.44181 22.3475 3.9357L17.6895 8.59335C17.8149 9.43822 17.871 9.92887 17.9278 10.8194Z" fill="#E7E7E7"/>
<path d="M17.0488 20.4027L20.4008 23.755C20.9583 23.3711 21.4834 22.9437 21.9733 22.4798L17.5642 18.0705C17.4235 18.886 17.2565 19.6736 17.0488 20.4027Z" fill="#E7E7E7"/>
<path d="M15.4258 24.3238V25.8241C15.8038 25.7537 16.1756 25.6665 16.5413 25.5641V22.6444C16.2126 23.303 15.8406 23.8745 15.4258 24.3238Z" fill="#E7E7E7"/>
<path d="M17.6903 8.59329L22.348 3.93564C21.9286 3.50498 21.4791 3.10419 21.0036 2.73502L17.3438 6.39546C17.5064 7.07535 17.5803 7.85357 17.6903 8.59329Z" fill="#D71F28"/>
<path d="M12.3711 0.0160582C12.5881 0.00555438 12.8044 0 13.021 0C12.8032 0 12.5864 0.00555438 12.3711 0.0160582Z" fill="#D32030"/>
<path d="M13.0206 26.0494C12.804 26.0494 12.5877 26.0435 12.3711 26.033C12.5864 26.0438 12.8028 26.0494 13.0206 26.0494Z" fill="#D32030"/>
<path d="M13.0215 26.0494C13.8433 26.0494 14.6457 25.9698 15.4252 25.824V24.3238C14.741 25.0653 13.9406 26.0494 13.0215 26.0494Z" fill="#D32030"/>
<path d="M25.8623 10.8193H18.0355C18.1392 12.4528 18.1266 14.1326 17.998 15.755H25.7632C25.9511 14.8741 26.0519 13.9615 26.0519 13.0249C26.0519 12.2726 25.9849 11.5368 25.8623 10.8193Z" fill="#D71F28"/>
<path d="M18.0203 15.9757C17.9479 16.7453 17.6958 17.345 17.5703 18.0709L21.9793 22.48C22.4155 22.0666 22.8233 21.6244 23.1993 21.1549L18.9152 16.8705L18.0203 15.9757Z" fill="#D71F28"/>
<path d="M15.4291 1.66763V0.22498C14.6499 0.0795761 13.8474 0 13.0254 0C13.9445 0 14.7449 0.926262 15.4291 1.66763Z" fill="#D32030"/>
<path d="M16.5449 23.2076C16.8972 22.5018 17.1993 21.6893 17.4523 20.8013L16.5449 19.8939V23.2076Z" fill="#29337A"/>
<path d="M17.5652 5.65917C17.2908 4.6095 16.9511 3.65525 16.5449 2.84189V6.67898L17.5652 5.65917Z" fill="#29337A"/>
<path d="M18.2701 16.2283C18.2849 16.0711 18.2983 15.9134 18.311 15.755H17.7969L18.2701 16.2283Z" fill="white"/>
<path d="M16.5413 6.67899V2.84168C16.2126 2.1834 15.8408 1.61785 15.4258 1.16827V8.3123L17.666 6.07213C17.6322 5.93228 17.5968 5.79529 17.5615 5.65874L16.5413 6.67899Z" fill="white"/>
<path d="M15.4609 10.8195H18.3442C18.2877 9.92901 18.1976 9.0529 18.0723 8.20825L15.4609 10.8195Z" fill="white"/>
<path d="M15.4258 24.8809C15.8408 24.4309 16.2126 23.8657 16.5413 23.2075V19.8938L17.4486 20.8011C17.6567 20.0717 17.8313 19.2924 17.9724 18.477L15.4258 15.9306L15.4258 24.8809Z" fill="white"/>
<path d="M15.4282 24.881V15.9307L17.9747 18.4773C18.0999 17.7511 18.1985 16.998 18.2706 16.2282L17.7974 15.755H18.3115C18.44 14.1326 18.4526 12.4528 18.349 10.8193H15.4657L18.0769 8.20811C17.9669 7.46816 17.8308 6.75247 17.6681 6.07236L15.4283 8.31254V1.16851C14.744 0.426917 13.9436 0 13.0245 0C12.808 0 12.5916 0.00555438 12.3747 0.0160582C11.734 0.0481196 11.1058 0.126926 10.4925 0.247857V10.7809L3.67403 3.96258C3.25509 4.39489 2.8654 4.85552 2.50876 5.34232L6.87049 9.70405L7.98637 10.8195H0.189619C0.0674774 11.5368 0 12.2726 0 13.025C0 13.9617 0.101189 14.8742 0.288718 15.755H10.4534L3.89615 22.3123C4.32554 22.7341 4.7827 23.1269 5.26665 23.4864L10.4923 18.2607V25.8012C11.1056 25.9222 11.7343 26.0009 12.3749 26.033C12.5914 26.0435 12.8078 26.0495 13.0244 26.0495C13.9436 26.0495 14.744 25.6226 15.4282 24.881Z" fill="#E51D35"/>
<path d="M25.33 40.91C32.83 40.91 38.91 34.83 38.91 27.33C38.91 19.83 32.83 13.75 25.33 13.75C17.83 13.75 11.75 19.83 11.75 27.33C11.75 34.83 17.83 40.91 25.33 40.91Z" fill="#F0F0F0" stroke="white" stroke-width="0.5"/>
<path d="M25.332 14V40.6629C32.695 40.6629 38.6637 34.6942 38.6637 27.3316C38.6637 19.9682 32.695 14 25.332 14Z" fill="#252F6B"/>
<path d="M25.3312 14C17.9687 14 12 19.9684 12 27.3314C12 34.694 17.9687 40.6626 25.3312 40.6626C32.6942 40.6626 32.6942 14 25.3312 14Z" fill="#273375"/>
<path d="M21.147 34.4361L22.046 33.3154L20.6572 33.5669L20.1754 32.2216L19.6516 33.5669L18.2337 33.3154L19.1349 34.4114L18.1992 35.5063L19.6253 35.2823L20.1063 36.5998L20.6302 35.2829L22.0847 35.5428L21.147 34.4361Z" fill="#F3F4F5"/>
<path d="M31.7736 35.426L32.2834 34.7909L31.4962 34.9334L31.2232 34.1712L30.9263 34.9334L30.1229 34.7909L30.6335 35.4116L30.1035 36.0324L30.9114 35.9053L31.184 36.6515L31.4808 35.9057L32.3051 36.0531L31.7736 35.426Z" fill="#F3F4F5"/>
<path d="M31.7736 21.3929L32.2834 20.7576L31.4962 20.9003L31.2232 20.1381L30.9263 20.9003L30.1229 20.7576L30.6335 21.3787L30.1035 21.9991L30.9114 21.8722L31.184 22.6188L31.4808 21.8726L32.3051 22.0197L31.7736 21.3929Z" fill="#F3F4F5"/>
<path d="M35.0709 25.0231L35.5803 24.3879L34.7935 24.5306L34.5204 23.7684L34.2237 24.5306L33.4198 24.3879L33.9304 25.0091L33.4004 25.6296L34.2083 25.5024L34.4809 26.2491L34.7777 25.5029L35.602 25.65L35.0709 25.0231Z" fill="#F3F4F5"/>
<path d="M28.9199 26.637L29.4297 26.0019L28.6425 26.1446L28.3694 25.3824L28.0727 26.1446L27.2694 26.0019L27.7798 26.6226L27.25 27.2434L28.0579 27.1165L28.3305 27.8625L28.6273 27.1169L29.4516 27.2641L28.9199 26.637Z" fill="#F3F4F5"/>
<path d="M14.8009 19.1624C14.5917 19.432 14.3919 19.7088 14.2031 19.994H15.6322L14.8009 19.1624Z" fill="#29337A"/>
<path d="M21.6855 27.3314H22.9698L21.6855 26.0471V27.3314Z" fill="#29337A"/>
<path d="M17.4266 16.597C17.1207 16.8226 16.8262 17.062 16.541 17.3122L17.4266 18.1974V16.597Z" fill="#29337A"/>
<path d="M16.1406 27.3314H17.4253V26.0468L16.1406 27.3314Z" fill="#29337A"/>
<path d="M25.3326 14C24.0675 14 22.8454 14.18 21.6855 14.5094V18.1973L25.333 14.55V14H25.3326Z" fill="#29337A"/>
<path d="M25.3333 26.1024V24.2515H23.4824L25.3333 26.1024Z" fill="#29337A"/>
<path d="M12.5501 27.3314L15.6306 24.2515H12.3618C12.1276 25.2406 12 26.2709 12 27.3314H12.5501Z" fill="#29337A"/>
<path d="M23.4766 19.994H25.3287V18.1423L23.4766 19.994Z" fill="#29337A"/>
<path d="M25.3342 26.4911V26.1023L23.4833 24.2514H25.3342V23.5885H22.4316L25.3342 26.4911Z" fill="white"/>
<path d="M15.6345 19.9938H14.2055C14.0628 20.21 13.9272 20.4313 13.7969 20.6561H16.6043L14.938 18.9902C14.8923 19.0471 14.8475 19.1045 14.803 19.1619L15.6345 19.9938Z" fill="white"/>
<path d="M17.4296 26.0466V27.3313H18.0921V25.0769L15.8379 27.3313H16.145L17.4296 26.0466Z" fill="white"/>
<path d="M21.6876 14.5091C21.4643 14.5724 21.2437 14.6415 21.0254 14.7158V19.1669L25.3351 14.8574V14.5503L21.6876 18.197V14.5091Z" fill="white"/>
<path d="M17.4073 24.2514L17.4306 24.2281L18.0699 23.5888H12.54C12.4762 23.8075 12.4179 24.0283 12.3652 24.2514H15.6341L12.5535 27.3314H14.3271L17.4073 24.2514Z" fill="white"/>
<path d="M12.5527 27.3315L15.6333 24.2515L12.5527 27.3315Z" fill="white"/>
<path d="M25.3345 20.6563V19.9938H23.4823L25.3345 18.1421V16.3688L21.0469 20.6563H25.3345Z" fill="white"/>
<path d="M25.3366 18.1423L23.4844 19.9941L25.3366 18.1423Z" fill="white"/>
<path d="M17.4286 18.1973L16.5431 17.3122C16.229 17.5882 15.9275 17.8786 15.6406 18.183L17.4286 19.971L17.4476 19.9904L18.0911 20.6339V16.1404C17.8658 16.2866 17.6442 16.4376 17.4288 16.5967V18.1973H17.4286Z" fill="white"/>
<path d="M21.6879 26.0471L22.9721 27.3314H24.6641L21.0254 23.693V27.3314H21.6879V26.0471Z" fill="white"/>
<path d="M17.4277 19.9711L17.4467 19.9905L17.4277 19.9711Z" fill="#D32030"/>
<path d="M23.0919 24.2513L22.4296 23.5887H25.3322V20.6565H21.0446L21.0225 20.679V20.6565H21.0446L25.3322 16.3693V14.8575L21.0222 19.1672V14.716C19.9805 15.072 18.9975 15.5523 18.09 16.1407V20.6339L18.113 20.6564H18.09V20.6339L17.4465 19.9905L17.4503 19.9943H17.4278V19.9713L15.6398 18.1833C15.3944 18.4431 15.1593 18.7121 14.9351 18.9908L16.6014 20.6567H13.794C13.2635 21.5711 12.8394 22.5537 12.5371 23.5889H18.0671L18.09 23.5655V23.5889H18.0671L17.4278 24.2282V24.2516H17.4044L14.3242 27.3314H15.836L18.0903 25.0769V27.3314H21.0225V23.6929L24.6609 27.3314H25.1613C25.2183 27.2718 25.2765 27.2127 25.3324 27.1514V26.491L23.0919 24.2513Z" fill="#D32030"/>
<path d="M21.0195 19.1673L25.3295 14.8576L21.0195 19.1673Z" fill="#D32030"/>
<path d="M17.4296 24.2513V24.2277L17.4062 24.2513H17.4296Z" fill="#D32030"/>
<path d="M18.0915 23.565L18.0684 23.5884H18.0915V23.565Z" fill="#D32030"/>
<path d="M21.0195 20.6791L21.0419 20.6566H21.0195V20.6791Z" fill="#D32030"/>
<path d="M17.4277 19.994H17.4505L17.4467 19.9905L17.4277 19.9711V19.994Z" fill="#D32030"/>
<path d="M18.1108 20.6566L18.0879 20.6338V20.6566H18.1108Z" fill="#D32030"/>
</svg>
